<svg version="1.1" id="Layer_1" xmlns="http://www.w3.org/2000/svg" xmlns:xlink="http://www.w3.org/1999/xlink" x="0px" y="0px" width="100%" height="100%" viewBox="0 0 266 93" enable-background="new 0 0 116 116" xml:space="preserve">
    <g>
        <path fill="#000000" d="M250.755,73.344h0.127l8.625-14.88h7.79l-13.31,21.245v7.133h-6.689v-7.134L234.04,58.463h7.786 L250.755,73.344L250.755,73.344z M223.231,74.403c3.011,0,5.206-1.573,5.206-4.752c0-3.15-2.149-4.954-5.206-4.954h-9.645v9.705
            H223.231L223.231,74.403z M228.133,59.261c4.481,1.674,7.093,5.634,7.093,10.391c0,3.988-1.794,7.411-5.309,9.377l4.369,7.814 h-7.418l-3.278-6.204h-10.003v6.204h-6.789V58.463h16.686C225.157,58.463,226.708,58.729,228.133,59.261L228.133,59.261z
             M202.39,64.597h-19.016v4.762h17.1v6.133h-17.1v5.064h19.723v6.285h-26.512V58.463h25.806V64.597L202.39,64.597z M172.993,64.597 h-11.349v22.245h-6.789V64.597h-11.349v-6.134h29.488V64.597L172.993,64.597z M132.148,64.664c-1.724-0.48-3.685-0.723-5.887-0.723
            c-1.436,0-5.437,0.124-6.267,1.708c-0.167,0.318-0.25,0.656-0.25,1.02c0,0.721,0.289,1.171,0.861,1.413	c0.645,0.273,1.494,0.479,2.557,0.612l8.373,0.956c5.132,0.633,9.848,2.655,9.848,8.596c0,7.682-8.71,9.302-14.719,9.302
            c-5.791,0-10.069-1.195-14.748-4.669l3.225-5.302c3.897,2.734,7.447,3.989,12.229,3.989c1.905,0,7.425-0.259,7.425-3.239 c0-1.809-1.456-2.11-2.963-2.282l-9.383-1.059c-2.884-0.339-5.175-1.131-6.852-2.392c-1.707-1.285-2.543-3.276-2.543-5.918
            c0-6.911,7.633-8.868,13.205-8.868c5.551,0,9.886,0.994,14.4,4.357l-3.286,5.053C135.728,66.076,134.083,65.203,132.148,64.664 L132.148,64.664z M111.082,86.842h-7.184l-1.816-4.237H85.201l-1.816,4.237h-7.288l12.367-28.378h10.558L111.082,86.842
            L111.082,86.842z M99.412,76.623l-4.85-12.076h-1.844l-4.995,12.076H99.412L99.412,76.623z M78.796,58.463v6.134H59.527v5.418 h17.049v6.134H59.527v10.694h-6.789V58.463H78.796L78.796,58.463z"></path>
        <polygon fill="#FC7216" points="27.287,23.441 35.618,0 122.928,0 27.287,23.441"></polygon>
        <polygon fill="#C61318" points="49.529,31.717 27.287,23.441 74.568,14.493 89.752,20.142 49.529,31.717"></polygon>
        <polygon fill="#FC7216" points="89.752,20.142 81.42,43.584 20.127,43.584 89.752,20.142"></polygon>
        <polygon fill="#C61318" points="48.015,46.401 0,100.21 20.127,43.584 48.015,46.401"></polygon>
    </g>
</svg>